    <svg xmlns="http://www.w3.org/2000/svg" xmlns:xlink="http://www.w3.org/1999/xlink" width="833px" height="172px" viewBox="0 0 833 172" version="1.1">    
        <g id="Page-1" stroke="none" stroke-width="1" fill="none" fill-rule="evenodd">
            <g id="Devour_logo" fill="#161616">
                <path d="M105.04,153.595 C113.581,147.21 120.048,138.227 124.443,126.646 C128.834,115.069 131.03,101.536 131.03,86.043 C131.03,70.555 128.834,57.021 124.443,45.441 C120.048,33.864 113.581,24.881 105.04,18.492 C96.495,12.107 86.314,8.91 74.497,8.91 L60.845,8.91 C52.221,8.91 47.909,13.304 47.909,22.085 L47.909,150.002 C47.909,158.787 52.221,163.177 60.845,163.177 L74.497,163.177 C86.314,163.177 96.495,159.984 105.04,153.595 Z M117.735,11.785 C131.228,18.174 141.93,27.677 149.835,40.291 C157.739,52.908 161.692,68.16 161.692,86.043 C161.692,103.931 157.739,119.182 149.835,131.796 C141.93,144.414 131.228,153.917 117.735,160.303 C104.239,166.691 89.35,169.884 73.061,169.884 L0,169.884 L0,164.135 C5.907,164.135 10.739,162.458 14.492,159.104 C18.243,155.751 20.121,150.48 20.121,143.295 L20.121,28.793 C20.121,21.606 18.243,16.336 14.492,12.982 C10.739,9.629 5.907,7.952 0,7.952 L0,2.203 L73.061,2.203 C89.35,2.203 104.239,5.399 117.735,11.785 Z" id="Fill-1"/>
                <path d="M240.259,7.952 L240.259,2.203 L148.754,2.203 L148.754,7.952 C154.661,7.952 159.493,9.629 163.247,12.982 C166.997,16.336 168.875,21.606 168.875,28.793 L168.875,143.295 C168.875,150.48 166.997,155.751 163.247,159.104 C159.493,162.458 154.661,164.135 148.754,164.135 L148.754,169.884 L275.234,169.884 L278.348,131.317 L272.598,131.317 C270.84,141.222 267.246,149.006 261.819,154.673 C256.388,160.343 248.883,163.177 239.302,163.177 L209.599,163.177 C200.975,163.177 196.663,158.787 196.663,150.002 L196.663,83.887 L232.116,83.887 C245.687,83.887 252.634,91.313 252.955,106.165 L258.705,106.165 L258.465,80.534 L258.705,54.902 L252.955,54.902 C252.634,69.755 245.687,77.18 232.116,77.18 L196.663,77.18 L196.663,22.085 C196.663,13.304 200.975,8.91 209.599,8.91 L239.062,8.91 C247.364,8.91 254.113,11.747 259.304,17.414 C259.411,17.531 259.508,17.664 259.615,17.783 C254.958,11.235 248.511,7.952 240.259,7.952" id="Fill-3"/>
                <path d="M366.259,2.203 L366.259,7.952 C377.757,7.952 383.506,11.785 383.506,19.45 C383.506,22.325 382.866,25.282 381.59,28.313 L338.711,139.702 L295.354,27.595 C294.396,24.881 293.917,22.486 293.917,20.408 C293.917,16.419 295.473,13.342 298.588,11.185 C301.702,9.03 305.733,7.952 310.684,7.952 L310.684,2.203 L272.838,2.203 L276.192,40.769 L270.442,40.769 C268.251,31.075 264.635,23.422 259.615,17.783 C261.085,19.851 262.382,22.238 263.494,24.96 L322.183,171.8 L333.921,169.884 L389.495,29.032 C392.527,21.367 395.921,15.939 399.676,12.743 C403.425,9.551 408.497,7.952 414.887,7.952 L414.887,2.203 L366.259,2.203" id="Fill-4"/>
                <g id="Group-8" transform="translate(240.000000, 0.000000)">
                    <path d="M36.192,40.769 L32.838,2.203 L0.259,2.203 L0.259,7.952 C8.511,7.952 14.958,11.235 19.615,17.783 C24.635,23.422 28.251,31.075 30.442,40.769 L36.192,40.769" id="Fill-5"/>
                    <path d="M241.236,150.361 C251.616,140.54 259.562,128.245 265.071,113.472 C270.581,98.702 273.336,84.288 273.336,70.233 C273.336,58.418 271.779,47.717 268.665,38.135 C265.551,28.554 260.918,20.97 254.771,15.378 C248.621,9.79 241.236,6.994 232.614,6.994 C218.559,6.994 206.343,12.144 195.964,22.444 C185.581,32.745 177.676,45.56 172.249,60.891 C166.817,76.222 164.104,91.074 164.104,105.447 C164.104,116.466 165.739,126.489 169.015,135.51 C172.286,144.534 176.998,151.721 183.147,157.068 C189.293,162.421 196.52,165.094 204.826,165.094 C218.72,165.094 230.854,160.182 241.236,150.361 Z M169.493,163.655 C158.714,158.228 150.169,150.241 143.862,139.702 C137.552,129.162 134.401,116.705 134.401,102.333 C134.401,85.085 138.63,68.597 147.096,52.866 C155.559,37.139 167.297,24.443 182.309,14.779 C197.318,5.119 214.086,0.287 232.614,0.287 C245.707,0.287 257.605,3.124 268.306,8.791 C279.003,14.462 287.469,22.766 293.697,33.703 C299.925,44.643 303.039,57.698 303.039,72.868 C303.039,89.798 298.727,105.847 290.104,121.017 C281.48,136.191 269.66,148.444 254.651,157.787 C239.639,167.13 223.031,171.8 204.826,171.8 C192.049,171.8 180.273,169.087 169.493,163.655 Z" id="Fill-7"/>
                </g>
                <path d="M694.188,7.952 C688.278,7.952 683.446,9.629 679.695,12.982 C675.941,16.336 674.067,21.606 674.067,28.793 L674.067,102.572 C674.067,124.292 668.834,141.259 658.377,153.474 C647.916,165.691 632.783,171.8 612.982,171.8 C600.205,171.8 588.987,169.247 579.327,164.135 C569.663,159.026 562.2,151.761 556.93,142.337 C551.66,132.916 549.025,121.818 549.025,109.04 L549.025,28.793 C549.025,21.606 547.146,16.336 543.395,12.982 C539.641,9.629 534.809,7.952 528.903,7.952 L528.903,2.203 L596.933,2.203 L596.933,7.952 C591.023,7.952 586.191,9.629 582.441,12.982 C578.687,16.336 576.812,21.606 576.812,28.793 L576.812,108.56 C576.812,118.142 578.848,126.527 582.921,133.714 C586.993,140.898 592.462,146.372 599.329,150.122 C606.193,153.876 613.78,155.751 622.087,155.751 C635.179,155.751 645.598,151.24 653.346,142.217 C661.091,133.197 664.965,119.341 664.965,100.656 L664.965,28.793 C664.965,21.606 663.085,16.336 659.335,12.982 C655.581,9.629 650.749,7.952 644.842,7.952 L644.842,2.203 L694.188,2.203 L694.188,7.952" id="Fill-9"/>
                <path d="M727.963,81.253 L743.533,81.253 C756.307,81.253 766.327,78.101 773.596,71.791 C780.861,65.484 784.495,56.58 784.495,45.081 C784.495,33.584 780.861,24.682 773.596,18.372 C766.327,12.065 756.307,8.91 743.533,8.91 L738.743,8.91 C731.556,8.91 727.963,12.586 727.963,19.929 L727.963,81.253 Z M824.14,158.506 C826.774,161.14 829.529,163.02 832.404,164.135 L832.404,169.884 L793.597,169.884 C787.527,159.505 781.459,149.522 775.392,139.94 C774.113,137.706 769.962,130.838 762.936,119.341 C755.908,107.843 749.84,97.384 744.731,87.96 L727.963,87.96 L727.963,143.295 C727.963,150.48 729.839,155.751 733.593,159.104 C737.343,162.458 742.175,164.135 748.085,164.135 L748.085,169.884 L680.055,169.884 L680.055,164.135 C685.961,164.135 690.793,162.458 694.547,159.104 C698.298,155.751 700.176,150.48 700.176,143.295 L700.176,28.793 C700.176,21.606 698.298,16.336 694.547,12.982 C690.793,9.629 685.961,7.952 680.055,7.952 L680.055,2.203 L752.876,2.203 C771.081,2.203 785.531,5.957 796.233,13.462 C806.93,20.97 812.282,31.51 812.282,45.081 C812.282,55.304 808.689,64.208 801.503,71.791 C794.317,79.378 785.215,84.367 774.194,86.762 C778.664,94.428 784.533,103.81 791.802,114.909 C799.066,126.011 806.93,137.066 815.396,148.085 C818.589,152.397 821.505,155.871 824.14,158.506 Z" id="Fill-10"/>
            </g>
        </g>
    </svg>